<svg xmlns="http://www.w3.org/2000/svg" width="1040" height="220" viewBox="0 0 1040 220" role="img" aria-label="我的深度学习之路 · 从理解到实践">
<rect width="1040" height="220" rx="18" fill="#f5f7fb"/>
<defs><marker id="arrow" markerWidth="10" markerHeight="10" refX="8" refY="5" orient="auto"><path d="M0 0 L10 5 L0 10" fill="#64748b"/></marker></defs>
<g font-family="system-ui, sans-serif">
<text x="40" y="42" font-size="23" fill="#0f172a" font-weight="700">我的深度学习之路 · 从理解到实践</text>
<rect x="40.0" y="74" width="172.8" height="64" rx="12" fill="#e0e7ff" stroke="#a5b4fc"/>
<text x="126.4" y="113" text-anchor="middle" font-size="18" fill="#312e81">数学 / ML</text>
<path d="M215.8 106 H231.8" stroke="#64748b" stroke-width="2" marker-end="url(#arrow)"/>
<rect x="236.8" y="74" width="172.8" height="64" rx="12" fill="#e0e7ff" stroke="#a5b4fc"/>
<text x="323.20000000000005" y="113" text-anchor="middle" font-size="18" fill="#312e81">深度学习</text>
<path d="M412.6 106 H428.6" stroke="#64748b" stroke-width="2" marker-end="url(#arrow)"/>
<rect x="433.6" y="74" width="172.8" height="64" rx="12" fill="#e0e7ff" stroke="#a5b4fc"/>
<text x="520.0" y="113" text-anchor="middle" font-size="18" fill="#312e81">LLM / RL</text>
<path d="M609.4000000000001 106 H625.4000000000001" stroke="#64748b" stroke-width="2" marker-end="url(#arrow)"/>
<rect x="630.4000000000001" y="74" width="172.8" height="64" rx="12" fill="#e0e7ff" stroke="#a5b4fc"/>
<text x="716.8000000000001" y="113" text-anchor="middle" font-size="18" fill="#312e81">Agent / 多模态</text>
<path d="M806.2 106 H822.2" stroke="#64748b" stroke-width="2" marker-end="url(#arrow)"/>
<rect x="827.2" y="74" width="172.8" height="64" rx="12" fill="#e0e7ff" stroke="#a5b4fc"/>
<text x="913.6" y="113" text-anchor="middle" font-size="18" fill="#312e81">工程 / 评估</text>
<text x="40" y="181" font-size="16" fill="#475569">每天一个小知识点：资料 → 原理 → 图解 → 最小实验 → 归纳 → 复习（原创学习路线示意）</text>
</g></svg>
